<?xml version="1.0" encoding="iso-8859-1"?>
<!-- Generator: Adobe Illustrator 19.0.0, SVG Export Plug-In . SVG Version: 6.00 Build 0)  -->
<svg xmlns="http://www.w3.org/2000/svg" xmlns:xlink="http://www.w3.org/1999/xlink" version="1.1" id="Layer_1" x="0px" y="0px" viewBox="0 0 512.001 512.001" style="enable-background:new 0 0 512.001 512.001;" xml:space="preserve">
<path id="SVGCleanerId_0" style="fill:#699E32;" d="M491.816,102.201H119.117c7.744,10.917,12.314,26.245,12.314,40.65H457.15  c6.924,0,10.538,3.612,10.538,10.536v207.347h24.129c6.924,0,12.537-5.612,12.537-12.535V114.736  C504.353,107.812,498.74,102.201,491.816,102.201z"/>
<g>
	<path id="SVGCleanerId_0_1_" style="fill:#699E32;" d="M491.816,102.201H119.117c7.744,10.917,12.314,26.245,12.314,40.65H457.15   c6.924,0,10.538,3.612,10.538,10.536v207.347h24.129c6.924,0,12.537-5.612,12.537-12.535V114.736   C504.353,107.812,498.74,102.201,491.816,102.201z"/>
</g>
<path style="fill:#5D8C28;" d="M483.865,141.851H159.146c0,0.332-0.016,0.667-0.02,0.999h298.023  c6.924,0,10.538,3.612,10.538,10.536v207.347h23.13c2.008,0,3.901-0.484,5.585-1.324V154.387  C496.402,147.463,490.79,141.851,483.865,141.851z"/>
<path style="fill:#73AD3B;" d="M457.149,140.852H131.43l0,0c0,14.405-4.567,29.734-12.314,40.65H422.48  c6.924,0,10.538,3.613,10.538,10.537v207.347h24.131c6.924,0,12.537-5.612,12.537-12.536V153.387  C469.686,146.463,464.073,140.852,457.149,140.852z"/>
<path style="fill:#699E32;" d="M460.154,192.04c0-6.923-3.613-10.537-10.537-10.537H422.48c6.924,0,10.538,3.613,10.538,10.537  v207.347h24.131c1.038,0,2.042-0.14,3.005-0.378V192.04z"/>
<path style="fill:#73AF3A;" d="M422.48,179.503c-8.157,0-363.818,0-368.211,0c-6.924,0-12.537,5.612-12.537,12.536  c0,11.504,0,221.849,0,233.463c0,6.922,5.608,12.536,12.537,12.536H422.48c6.928,0,12.536-5.613,12.536-12.536  c0-11.614,0-221.96,0-233.463C435.016,185.116,429.404,179.503,422.48,179.503z"/>
<path style="fill:#7EBC48;" d="M422.48,179.503c-2.955,0-284.217,0-292.235,0c-38.598,92.354-7.358,201.587,79.209,258.535H422.48  c6.928,0,12.536-5.613,12.536-12.536c0-11.614,0-221.96,0-233.463C435.016,185.116,429.404,179.503,422.48,179.503z"/>
<circle style="fill:#ADE573;" cx="238.374" cy="310.819" r="91.545"/>
<path style="fill:#9CD665;" d="M271.356,379.372c-79.903,0-120.81-95.156-67.523-153.346c-33.434,13.634-57,46.459-57,84.793  c0,50.559,40.985,91.542,91.541,91.542c26.734,0,50.788-11.461,67.523-29.736C295.238,376.971,283.577,379.372,271.356,379.372z"/>
<circle style="fill:#45CE73;" cx="74.534" cy="140.849" r="66.889"/>
<path style="fill:#34B75C;" d="M36.327,117.17c0-13.992,4.302-26.976,11.648-37.713C24.25,89.735,7.646,113.35,7.646,140.852  c0,36.943,29.949,66.889,66.891,66.889c22.95,0,43.194-11.564,55.241-29.177C85.702,197.66,36.327,165.258,36.327,117.17z"/>
<path d="M238.364,211.757c-54.642,0-99.096,44.454-99.096,99.095c0,85.979,102.323,130.704,165.552,73.508  c3.072-2.778,3.31-7.521,0.53-10.594c-2.778-3.071-7.522-3.31-10.594-0.53c-53.673,48.553-140.488,10.558-140.488-62.385  c0-46.37,37.725-84.094,84.095-84.094s84.095,37.724,84.095,84.094c0,15.565-4.282,30.763-12.385,43.948  c-2.169,3.529-1.066,8.148,2.463,10.317c3.528,2.17,8.148,1.066,10.317-2.463c9.556-15.55,14.605-33.462,14.605-51.802  C337.458,256.211,293.005,211.757,238.364,211.757z"/>
<path d="M241.246,364.828v-12.245c15.711-0.65,27.162-7.806,27.162-23.378c0-15.962-12.646-20.32-28.164-24.044v-19.259  c8.593,0.89,17.113,5.848,18.589,7.57l6.791-12.469c-6.963-4.806-15.275-7.989-24.378-8.684v-11.243h-6.68v11.355  c-26.772,2.231-30.862,28.297-19.815,38.238c4.874,4.387,14.447,7.434,20.817,8.85v19.147c-9.298-1.033-19.635-6.257-22.819-9.464  l-6.791,13.248c7.697,5.419,17.786,9.242,28.609,10.02v12.356L241.246,364.828L241.246,364.828z M240.244,320.967  c8.535,2.732,11.8,5.202,11.8,9.796c0,5.195-3.934,7.904-11.8,8.126V320.967z M224.993,294.584c0-5.416,3.523-8.349,10.575-8.794  v18.034C228.453,301.748,224.993,299.685,224.993,294.584z"/>
<path d="M491.956,94.609H132.77c-2.831-3.577-5.984-6.929-9.481-9.975c-3.125-2.721-7.861-2.393-10.583,0.73  c-2.72,3.124-2.393,7.861,0.73,10.583c38.218,33.281,19.591,97.879-32.16,103.857c-35.181,4.11-66.276-23.51-66.276-59.02  c0-39.178,37.57-67.931,75.581-57.207c3.989,1.122,8.131-1.196,9.256-5.183c1.124-3.987-1.196-8.13-5.183-9.256  c-6.549-1.847-13.355-2.783-20.225-2.783C33.39,66.356,0,99.744,0,140.784c0,26.186,13.605,49.238,34.106,62.509v222.31  c0,11.053,8.992,20.044,20.044,20.044h368.429c11.053,0,20.044-8.991,20.044-20.044v-18.631h14.646  c11.053,0,20.044-8.992,20.044-20.043v-18.632h14.644c11.053,0,20.044-8.992,20.044-20.043V114.653  C512,103.601,503.007,94.609,491.956,94.609z M427.622,425.602c0,2.78-2.263,5.043-5.043,5.043H54.149  c-2.78,0-5.043-2.263-5.043-5.043V210.77c30.098,10.924,63.825,1.238,83.677-23.811h289.795c2.78,0,5.043,2.263,5.043,5.043  C427.622,201.014,427.622,414.964,427.622,425.602z M462.311,386.928c0,2.78-2.263,5.042-5.043,5.042h-14.646V192.002  c0-11.053-8.991-20.044-20.044-20.044H142.025c3.531-7.624,5.673-15.86,6.46-23.673h308.783c2.78,0,5.043,2.262,5.043,5.042  C462.311,162.342,462.311,376.29,462.311,386.928z M496.999,348.253c0,2.78-2.263,5.042-5.043,5.042h-14.644V153.327  c0-11.052-8.992-20.043-20.044-20.043H148.485c-0.835-8.318-3.18-16.59-6.461-23.674h349.932c2.78,0,5.043,2.263,5.043,5.043  L496.999,348.253L496.999,348.253z"/>
<path d="M69.533,149.485L56.98,137.908c-3.046-2.806-7.79-2.614-10.6,0.429c-2.808,3.045-2.616,7.79,0.429,10.6  c19.049,17.568,19.002,18.404,22.886,18.404c4.177,0,2.341,0.716,39.299-35.599c2.954-2.903,2.996-7.651,0.093-10.607  c-2.904-2.953-7.649-2.995-10.607-0.093L69.533,149.485z"/>
<g>
</g>
<g>
</g>
<g>
</g>
<g>
</g>
<g>
</g>
<g>
</g>
<g>
</g>
<g>
</g>
<g>
</g>
<g>
</g>
<g>
</g>
<g>
</g>
<g>
</g>
<g>
</g>
<g>
</g>
</svg>
